<?xml version="1.0" standalone="no"?>
<!DOCTYPE svg PUBLIC "-//W3C//DTD SVG 1.1//EN" "http://www.w3.org/Graphics/SVG/1.1/DTD/svg11.dtd" >
<svg xmlns="http://www.w3.org/2000/svg">
<metadata>Generated by IcoMoon</metadata>
<defs>
<font id="icomoon" horiz-adv-x="1024">
<font-face units-per-em="1024" ascent="960" descent="-64" />
<missing-glyph horiz-adv-x="1024" />
<glyph unicode="&#x20;" horiz-adv-x="512" d="" />
<glyph unicode="&#x2d8;" d="M994.304 450.389c0 14.308-3.413 27.733-9.131 39.936-38.144 123.051-216.718 114.062-470.727 120.064-42.468 0.996-18.176 51.143-3.271 161.223 9.7 71.595-36.466 181.532-114.062 181.532-127.943 0-4.864-100.921-117.988-350.492-60.444-133.348-195.556-58.652-195.556-192.597v-304.896c0-52.139 5.12-102.258 78.45-110.507 71.083-7.993 55.097-58.652 157.639-58.652h513.252c52.281 0 94.805 42.553 94.805 94.834 0 21.675-7.595 41.415-19.854 57.401 29.013 16.242 48.924 46.905 48.924 82.46 0 21.618-7.566 41.358-19.797 57.316 29.099 16.213 49.067 46.905 49.067 82.517 0 25.856-10.468 49.294-27.335 66.446 21.532 17.38 35.584 43.662 35.584 73.415z" />
<glyph unicode="&#x20d7;" d="M654.791 355.584h244.736c33.28 0 64.512 17.806 81.522 46.45 6.997 11.804 3.1 27.079-8.732 34.105-11.804 7.026-27.079 3.072-34.105-8.732-8.050-13.625-22.926-22.044-38.713-22.044h-250.596c-24.832 0-45.028 20.196-45.028 45.028s20.196 45.028 45.028 45.028h167.452c13.739 0 24.889 11.15 24.889 24.889s-11.15 24.889-24.889 24.889h-167.481c-52.281 0-94.805-42.524-94.805-94.805 0-29.156 13.511-54.955 34.276-72.363-17.493-17.209-28.388-41.102-28.388-67.499 0-29.241 13.596-55.125 34.475-72.505-17.38-17.18-28.16-40.988-28.16-67.328 0-31.858 15.9-59.961 40.078-77.17-14.905-16.754-24.235-38.571-24.235-62.692 0-52.281 42.524-94.805 94.805-94.805h155.989c33.28 0 64.54 17.778 81.55 46.421 7.026 11.804 3.129 27.079-8.676 34.105-11.833 6.969-27.108 3.129-34.105-8.676-8.107-13.625-22.983-22.073-38.77-22.073h-155.989c-24.832 0-45.028 20.196-45.028 45.028s20.196 45.028 45.028 45.028h185.060c33.28 0 64.569 17.806 81.55 46.45 7.026 11.833 3.129 27.108-8.676 34.105-11.918 7.14-27.136 3.129-34.105-8.676-8.22-13.852-22.727-22.101-38.77-22.101h-200.903c-24.832 0-45.028 20.224-45.028 45.056s20.196 45.028 45.028 45.028h230.144c33.28 0 64.54 17.778 81.55 46.421 7.026 11.804 3.129 27.079-8.676 34.105-11.861 6.997-27.108 3.129-34.105-8.676-8.22-13.824-22.727-22.073-38.77-22.073h-236.43c-24.832 0-45.028 20.196-45.028 45.028s20.167 45.056 45.028 45.056z" />
<glyph unicode="&#xe900;" glyph-name="attached" d="M511.672 960c282.051 0 511.672-229.622 511.672-511.672s-229.622-511.672-511.672-511.672c-282.051 0-511.672 229.622-511.672 511.672s229.622 511.672 511.672 511.672zM511.672 926.413c-131.809 0-251.372-53.576-337.92-140.165-86.589-86.548-140.165-206.111-140.165-337.92s53.576-251.372 140.165-337.92c86.548-86.589 206.111-140.165 337.92-140.165s251.372 53.576 337.92 140.165c86.589 86.548 140.165 206.111 140.165 337.92s-53.576 251.372-140.165 337.92c-86.508 86.589-206.111 140.165-337.92 140.165zM532.48 673.28v-204.8h204.8v-40.96h-204.8v-204.8h-40.96v204.8h-204.8v40.96h204.8v204.8h40.96z" />
<glyph unicode="&#xe901;" glyph-name="close" d="M1024 857.6l-102.4 102.4-409.6-409.6-409.6 409.6-102.4-102.4 409.6-409.6-409.6-409.6 102.4-102.4 409.6 409.6 409.6-409.6 102.4 102.4-409.6 409.6z" />
<glyph unicode="&#xe902;" glyph-name="search" horiz-adv-x="956" d="M628.19 719.292c-116.395 116.463-305.152 116.463-421.615 0s-116.463-305.152 0-421.615c116.463-116.463 305.152-116.463 421.615 0 116.463 116.395 116.463 305.152 0 421.615zM938.325-12.459c-23.347-23.211-61.099-23.211-84.378 0l-187.802 187.87c-163.499-122.197-395.332-110.66-543.881 37.888-163.021 163.021-163.021 427.281 0 590.302 162.953 163.021 427.349 163.021 590.302 0 148.548-148.548 160.154-380.382 37.888-543.881l187.87-187.802c23.211-23.279 23.211-61.030 0-84.378z" />
<glyph unicode="&#xe903;" d="M866.057-63.999h-704.527c-55.338 0.008-106.73 28.659-135.833 75.739-29.096 47.071-31.747 105.856-7.011 155.361l352.232 704.559c27.037 54.137 82.359 88.341 142.875 88.341s115.838-34.204 142.875-88.341l352.232-704.559c24.737-49.505 22.085-108.289-7.011-155.361-29.096-47.079-80.496-75.731-135.833-75.739z" />
<glyph unicode="&#xe904;" glyph-name="send" d="M512 960c-282.77 0-512-229.23-512-512s229.23-512 512-512 512 229.23 512 512c-0.33 282.634-229.366 511.67-512 512zM512-21.334c-259.206 0-469.334 210.128-469.334 469.334s210.128 469.334 469.334 469.334 469.334-210.128 469.334-469.334c-0.294-259.084-210.25-469.040-469.334-469.334zM868.416 463.082l-128 128-30.166-30.166 91.584-91.584h-652.5v-42.666h652.502l-91.584-91.584 30.166-30.166 128 128c8.326 8.332 8.326 21.836-0.002 30.166z" />
<glyph unicode="&#xe905;" glyph-name="search1" d="M1011.488 8.835l-291.197 291.197c56.405 69.673 90.367 158.206 90.367 254.632 0 223.486-181.844 405.33-405.33 405.33s-405.328-181.842-405.328-405.328 181.844-405.33 405.33-405.33c96.425 0 184.958 33.962 254.632 90.367l291.197-291.197c8.32-8.32 19.242-12.502 30.166-12.502s21.846 4.182 30.166 12.502c16.682 16.682 16.682 43.648-0.002 60.329zM405.33 234.669c-176.468 0-319.997 143.529-319.997 319.997s143.529 319.997 319.997 319.997 319.997-143.529 319.997-319.997-143.531-319.997-319.997-319.997z" />
<glyph unicode="&#xe906;" d="M1024 448c0-282.766-229.234-512-512-512s-512 229.234-512 512 229.234 512 512 512 512-229.234 512-512z" />
<glyph unicode="&#xe907;" d="M341.333 448c0-78.547-63.675-142.222-142.222-142.222s-142.222 63.675-142.222 142.222c0 78.547 63.675 142.222 142.222 142.222s142.222-63.675 142.222-142.222z" />
<glyph unicode="&#xe908;" d="M967.111 448c0-78.547-63.675-142.222-142.222-142.222s-142.222 63.675-142.222 142.222c0 78.547 63.675 142.222 142.222 142.222s142.222-63.675 142.222-142.222z" />
<glyph unicode="&#xe909;" d="M777.529 344.775c-5.063 4.58-12.629 4.864-18.062 0.825-1.109-0.825-111.559-82.489-247.467-82.489-135.566 0-246.386 81.664-247.467 82.489-5.433 4.039-12.999 3.698-18.062-0.825-5.035-4.551-6.172-12.060-2.674-17.863 3.669-6.116 91.506-149.134 268.203-149.134s264.562 143.019 268.203 149.134c3.499 5.831 2.389 13.312-2.674 17.863zM227.527 533.333c-4.267 0-8.619 0.967-12.686 3.015-14.052 7.026-19.74 24.121-12.715 38.172 1.479 2.958 37.49 72.59 139.207 72.59 101.746 0 137.728-69.66 139.207-72.619 7.026-14.052 1.337-31.147-12.715-38.172-13.995-6.969-30.862-1.394-38.002 12.402-1.223 2.276-23.609 41.5-88.491 41.5-65.906 0-88.149-40.761-88.348-41.159-4.978-9.984-15.019-15.73-25.458-15.73zM796.473 533.333c-10.439 0-20.48 5.746-25.486 15.73-0.711 1.308-22.926 41.159-88.32 41.159s-87.609-39.851-88.519-41.529c-7.396-13.682-24.434-19.058-38.258-11.947-13.796 7.168-19.399 23.865-12.459 37.774 1.479 2.93 37.49 72.59 139.236 72.59s137.756-69.66 139.236-72.619c7.026-14.052 1.337-31.147-12.715-38.172-4.096-2.020-8.448-2.987-12.715-2.987z" />
<glyph unicode="&#xe90a;" d="M1024 448c0-282.77-229.23-512-512-512s-512 229.23-512 512c0 282.77 229.23 512 512 512s512-229.23 512-512z" />
<glyph unicode="&#xe90b;" d="M199.083 476.444c-4.267 0-8.619 0.967-12.686 2.987-14.052 7.026-19.74 24.121-12.715 38.172 1.479 2.987 37.49 72.619 139.207 72.619 101.746 0 137.728-69.66 139.207-72.619 7.026-14.052 1.308-31.147-12.715-38.172-13.966-7.026-30.862-1.394-38.002 12.402-1.252 2.304-23.637 41.5-88.491 41.5-65.906 0-88.149-40.761-88.348-41.159-4.978-9.984-15.019-15.73-25.458-15.73zM824.889 476.444c4.267 0 8.619 0.967 12.686 2.987 14.052 7.026 19.74 24.121 12.715 38.172-1.479 2.987-37.49 72.619-139.207 72.619-101.746 0-137.728-69.66-139.207-72.619-7.026-14.052-1.308-31.147 12.715-38.172 13.966-7.026 30.862-1.394 38.002 12.402 1.252 2.304 23.637 41.5 88.491 41.5 65.906 0 88.149-40.761 88.348-41.159 4.978-9.984 15.019-15.73 25.458-15.73zM839.196 290.987c9.188 21.305 13.113 35.755 13.255 36.324 3.812 15.189-5.404 30.578-20.622 34.418-15.246 3.868-30.635-5.348-34.56-20.565-2.105-8.391-55.41-206.052-285.269-206.052s-283.164 197.66-285.298 206.080c-3.925 15.189-19.314 24.405-34.56 20.565-15.189-3.84-24.405-19.228-20.622-34.418 0.626-2.503 65.451-249.116 340.48-249.116 46.933 0 87.324 7.566 122.738 19.484 123.164 41.472 181.305 139.662 204.459 193.28z" />
<glyph unicode="&#xe90c;" d="M921.799 201.074l-84.082 86.784s-19.342 12.459-36.21-16.156c-22.187-37.604-59.022-83.484-111.9-118.642-22.215-14.763-60.843-33.82-76.715-37.49-20.907-4.807-11.036-27.42-11.036-27.42 16.64 3.612 29.895 8.562 29.895 8.562l85.959-85.959c49.152-49.152 142.222-56.889 199.111 0s54.158 141.141 4.978 190.322z" />
<glyph unicode="&#xe90d;" d="M850.916 76.117c6.059 6.059 6.059 15.872 0 21.931l-103.225 103.225-22.642-21.276 103.908-103.908c6.059-6.030 15.9-6.030 21.959 0.028z" />
<glyph unicode="&#xe90e;" d="M1024 448c0-282.766-229.234-512-512-512s-512 229.234-512 512 229.234 512 512 512 512-229.234 512-512z" />
<glyph unicode="&#xe90f;" d="M625.778 192c0-78.592-50.944-85.333-113.778-85.333-62.862 0-113.778 6.741-113.778 85.333 0 78.535 50.916 170.667 113.778 170.667 62.834 0 113.778-92.132 113.778-170.667zM853.333 533.333c-3.527 0-7.111 0.654-10.553 2.048-148.736 59.477-209.692 149.077-212.224 152.86-8.732 13.084-5.205 30.748 7.879 39.452 13.056 8.704 30.635 5.234 39.396-7.794 0.54-0.768 54.898-79.218 186.055-131.669 14.592-5.86 21.703-22.386 15.872-36.978-4.466-11.15-15.161-17.92-26.425-17.92zM170.667 533.333c-11.292 0-21.959 6.77-26.425 17.892-5.831 14.592 1.252 31.147 15.844 36.978 131.186 52.452 185.543 130.901 186.084 131.669 8.761 12.971 26.425 16.412 39.452 7.68 12.999-8.761 16.526-26.311 7.822-39.339-2.532-3.783-63.488-93.383-212.196-152.86-3.47-1.365-7.054-2.020-10.581-2.020z" />
<glyph unicode="&#xe910;" d="M682.667 504.889h113.778v-540.444l-113.778 1.308v539.136zM227.556-35.556l113.778 1.308v539.136h-113.778v-540.444z" />
<glyph unicode="&#xe911;" d="M426.638 448c-4.267 0-8.619 0.967-12.686 2.987-99.897 49.948-201.102 0.512-202.098 0-14.080-7.083-31.147-1.308-38.172 12.715-7.026 14.052-1.337 31.147 12.715 38.172 5.177 2.56 127.943 62.492 253.013 0 14.052-7.026 19.74-24.121 12.715-38.172-5.006-9.956-15.047-15.701-25.486-15.701zM824.86 448c-4.267 0-8.619 0.967-12.686 2.987-99.925 49.948-201.102 0.512-202.098 0-14.052-7.054-31.118-1.337-38.172 12.715-7.026 14.052-1.337 31.147 12.715 38.172 5.177 2.56 128.028 62.464 253.013 0 14.052-7.026 19.74-24.121 12.715-38.172-5.006-9.956-15.047-15.701-25.486-15.701z" />
<glyph unicode="&#xe912;" d="M1024-7.111c0-31.419-229.23-56.889-512-56.889s-512 25.47-512 56.889c0 31.419 229.23 56.889 512 56.889s512-25.47 512-56.889z" />
<glyph unicode="&#xe913;" d="M597.333 192c0-31.419-38.205-56.889-85.333-56.889s-85.333 25.47-85.333 56.889c0 31.419 38.205 56.889 85.333 56.889s85.333-25.47 85.333-56.889z" />
<glyph unicode="&#xe914;" d="M1024 448c0-282.766-229.234-512-512-512-282.738 0-512 229.234-512 512 0 282.738 229.262 512 512 512 282.766 0 512-229.262 512-512z" />
<glyph unicode="&#xe915;" d="M809.444 453.774c-1.707 3.84-42.638 93.781-126.777 93.781-84.11 0-125.070-89.941-126.777-93.781-2.617-5.888-0.91-12.772 4.124-16.811 4.978-4.039 12.117-4.181 17.351-0.398 0.341 0.256 35.897 25.657 105.301 25.657 69.006 0 104.505-25.060 105.301-25.628 2.503-1.877 5.518-2.816 8.476-2.816 3.129 0 6.286 1.052 8.875 3.1 5.035 4.039 6.77 10.98 4.124 16.896zM468.11 453.774c-1.707 3.84-42.638 93.781-126.777 93.781-84.11 0-125.070-89.941-126.777-93.781-2.617-5.888-0.91-12.772 4.096-16.811s12.146-4.181 17.351-0.398c0.37 0.256 35.897 25.657 105.33 25.657 69.006 0 104.505-25.060 105.301-25.628 2.503-1.877 5.518-2.816 8.476-2.816 3.129 0 6.286 1.052 8.875 3.1 5.063 4.039 6.741 10.98 4.124 16.896zM512 334.222c-103.054 0-171.435 12.004-256 28.444-19.314 3.726-56.889 0-56.889-56.889 0-113.778 130.702-256 312.889-256 182.158 0 312.889 142.222 312.889 256 0 56.889-37.575 60.644-56.889 56.889-84.565-16.441-152.946-28.444-256-28.444z" />
<glyph unicode="&#xe916;" d="M256 305.778s85.333-28.444 256-28.444 256 28.444 256 28.444-56.889-113.778-256-113.778-256 113.778-256 113.778z" />
<glyph unicode="&#xe917;" d="M995.556 647.111c0-78.564-63.659-142.222-142.222-142.222s-142.222 63.659-142.222 142.222 113.778 284.444 142.222 284.444 142.222-205.881 142.222-284.444z" />
<glyph unicode="&#xe918;" d="M1024 448c0-282.766-229.234-512-512-512-282.738 0-512 229.234-512 512 0 282.738 229.262 512 512 512 282.766 0 512-229.262 512-512z" />
<glyph unicode="&#xe919;" d="M512 334.222c-103.054 0-171.435 12.004-256 28.444-19.314 3.726-56.889 0-56.889-56.889 0-113.778 130.702-256 312.889-256 182.158 0 312.889 142.222 312.889 256 0 56.889-37.575 60.644-56.889 56.889-84.565-16.441-152.946-28.444-256-28.444z" />
<glyph unicode="&#xe91a;" d="M256 305.778s85.333-28.444 256-28.444 256 28.444 256 28.444-56.889-113.778-256-113.778-256 113.778-256 113.778z" />
<glyph unicode="&#xe91b;" d="M870.4 442.311c-3.243 2.418-54.926 40.562-132.153 66.674 0.74 3.271 1.308 6.628 1.308 10.126 0 10.496-3.954 19.996-10.212 27.42 51.257 14.791 94.834 15.246 95.602 15.246 15.673 0.057 28.388 12.8 28.359 28.501-0.028 15.673-12.715 28.388-28.416 28.388-6.286 0-155.051-1.081-247.666-93.668-8.135-8.135-10.581-20.366-6.172-31.004 4.38-10.61 14.791-17.55 26.283-17.55 130.56 0 237.881-78.848 238.962-79.673 5.12-3.812 11.093-5.632 17.010-5.632 8.676 0 17.209 3.954 22.812 11.378 9.387 12.601 6.827 30.379-5.717 39.794zM446.777 524.999c-92.587 92.587-241.38 93.668-247.666 93.668-15.701 0-28.416-12.715-28.416-28.388-0.028-15.701 12.686-28.444 28.388-28.501 0.74 0 44.316-0.455 95.602-15.246-6.286-7.424-10.24-16.924-10.24-27.42 0-3.499 0.54-6.855 1.337-10.126-77.255-26.112-128.939-64.256-132.181-66.674-12.572-9.415-15.104-27.25-5.689-39.794 5.575-7.481 14.137-11.406 22.784-11.406 5.916 0 11.918 1.849 17.038 5.689 1.052 0.796 107.719 79.644 238.933 79.644 11.492 0 21.874 6.94 26.283 17.55 4.409 10.638 1.963 22.869-6.172 31.004z" />
<glyph unicode="&#xe91c;" d="M1024 448c0-282.766-229.234-512-512-512-282.738 0-512 229.234-512 512 0 282.738 229.262 512 512 512 282.766 0 512-229.262 512-512z" />
<glyph unicode="&#xe91d;" d="M398.222 490.667c0-54.983-31.838-99.556-71.111-99.556s-71.111 44.573-71.111 99.556c0 54.983 31.838 99.556 71.111 99.556s71.111-44.573 71.111-99.556z" />
<glyph unicode="&#xe91e;" d="M809.444 453.774c-1.707 3.84-42.638 93.781-126.777 93.781-84.11 0-125.070-89.941-126.777-93.781-2.617-5.888-0.91-12.772 4.124-16.811 4.978-4.039 12.117-4.181 17.351-0.398 0.341 0.256 35.897 25.657 105.301 25.657 69.006 0 104.505-25.060 105.301-25.628 2.503-1.877 5.518-2.816 8.476-2.816 3.129 0 6.286 1.052 8.875 3.1 5.035 4.039 6.77 10.98 4.124 16.896zM170.638 605.639c-5.916 0-11.918 1.849-17.038 5.689-12.572 9.415-15.104 27.25-5.689 39.822 92.786 123.733 216.633 125.156 221.867 125.156 15.701 0 28.444-12.743 28.444-28.444 0-15.673-12.658-28.388-28.331-28.444-4.437-0.057-101.518-2.446-176.498-102.4-5.547-7.452-14.108-11.378-22.756-11.378zM824.917 545.195c-8.676 0-17.18 3.925-22.784 11.378-73.728 98.332-198.002 74.724-199.225 74.524-15.559-3.072-30.379 6.912-33.479 22.3-3.072 15.417 6.912 30.379 22.3 33.479 6.571 1.337 160.91 30.492 255.886-96.142 9.444-12.572 6.884-30.407-5.689-39.822-5.092-3.897-11.065-5.717-17.010-5.717zM661.447 289.365c-5.348 3.129-12.288 2.475-16.981-1.707-0.284-0.228-28.814-24.548-132.466-24.548-103.566 0-132.153 24.292-132.153 24.292-4.523 4.551-11.492 5.404-17.067 2.332-5.547-3.157-8.334-9.643-6.77-15.844 0.284-1.252 32.54-124.558 155.989-124.558s155.705 123.307 156.018 124.558c1.508 6.059-1.252 12.26-6.571 15.474z" />
<glyph unicode="&#xe91f;" d="M1024 448c0-282.766-229.234-512-512-512-282.738 0-512 229.234-512 512 0 282.738 229.262 512 512 512 282.766 0 512-229.262 512-512z" />
<glyph unicode="&#xe920;" d="M170.667 590.222c-15.701 0-28.444 12.743-28.444 28.444 0 15.673 12.658 28.388 28.331 28.444 4.437 0.057 101.518 2.446 176.498 102.4 9.415 12.516 27.221 15.132 39.822 5.689 12.572-9.415 15.104-27.25 5.689-39.822-92.814-123.733-216.661-125.156-221.895-125.156zM853.333 590.222c-5.234 0-129.052 1.422-221.867 125.156-9.444 12.572-6.884 30.407 5.689 39.822 12.544 9.472 30.35 6.884 39.794-5.689 75.122-100.153 172.402-102.372 176.526-102.4 15.644-0.171 28.274-12.971 28.188-28.587-0.057-15.673-12.686-28.302-28.331-28.302zM870.4 385.422c-3.243 2.446-54.926 40.562-132.153 66.674 0.74 3.271 1.308 6.628 1.308 10.126 0 10.496-3.954 19.996-10.212 27.42 51.257 14.791 94.834 15.246 95.602 15.246 15.673 0.057 28.388 12.8 28.359 28.501-0.028 15.673-12.715 28.388-28.416 28.388-6.286 0-155.051-1.081-247.666-93.668-8.135-8.135-10.581-20.366-6.172-31.004 4.38-10.638 14.791-17.55 26.283-17.55 130.56 0 237.881-78.848 238.962-79.673 5.12-3.812 11.093-5.632 17.010-5.632 8.676 0 17.209 3.954 22.812 11.378 9.387 12.601 6.827 30.379-5.717 39.794zM446.777 468.11c-92.587 92.587-241.38 93.668-247.666 93.668-15.701 0-28.416-12.715-28.416-28.388-0.028-15.701 12.686-28.444 28.388-28.501 0.74 0 44.316-0.455 95.602-15.246-6.286-7.424-10.24-16.924-10.24-27.42 0-3.499 0.54-6.855 1.337-10.126-77.255-26.112-128.939-64.228-132.181-66.674-12.572-9.415-15.104-27.25-5.689-39.794 5.575-7.481 14.137-11.406 22.784-11.406 5.916 0 11.918 1.849 17.038 5.689 1.052 0.796 107.719 79.644 238.933 79.644 11.492 0 21.874 6.912 26.283 17.55s1.963 22.869-6.172 31.004zM512 106.667c-8.647 0-16.811 3.925-22.215 10.667l-90.852 113.55-63.289-84.395c-4.949-6.599-12.516-10.724-20.736-11.292-8.249-0.597-16.327 2.418-22.13 8.249l-28.444 28.444c-11.122 11.122-11.122 29.099 0 40.22s29.099 11.122 40.22 0l5.262-5.262 65.65 87.552c5.291 7.054 13.511 11.264 22.3 11.378 8.391 0.284 17.152-3.783 22.642-10.667l91.591-114.46 91.563 114.46c5.49 6.855 13.767 10.667 22.67 10.667 8.818-0.142 17.038-4.324 22.3-11.378l65.678-87.524 5.262 5.262c11.122 11.122 29.099 11.122 40.22 0s11.122-29.099 0-40.22l-28.444-28.444c-5.831-5.831-13.625-8.932-22.13-8.249-8.22 0.597-15.787 4.693-20.736 11.292l-63.317 84.395-90.823-113.55c-5.433-6.77-13.596-10.695-22.244-10.695z" />
<glyph unicode="&#xe921;" d="M1024 448c0-282.766-229.234-512-512-512-282.738 0-512 229.234-512 512 0 282.738 229.262 512 512 512 282.766 0 512-229.262 512-512z" />
<glyph unicode="&#xe922;" d="M654.222 192c0-94.257-63.675-170.667-142.222-170.667s-142.222 76.41-142.222 170.667c0 94.257 63.675 170.667 142.222 170.667s142.222-76.41 142.222-170.667z" />
<glyph unicode="&#xe923;" d="M170.638 647.111c-5.916 0-11.918 1.849-17.038 5.689-12.572 9.415-15.104 27.25-5.689 39.822 92.786 123.733 216.633 125.156 221.867 125.156 15.701 0 28.444-12.743 28.444-28.444 0-15.673-12.658-28.388-28.331-28.444-4.409-0.057-101.49-2.446-176.469-102.4-5.575-7.452-14.137-11.378-22.784-11.378zM853.362 647.111c-8.676 0-17.18 3.925-22.784 11.378-75.093 100.153-172.402 102.343-176.526 102.4-15.644 0.171-28.274 12.971-28.188 28.587 0.085 15.673 12.715 28.302 28.359 28.302 5.234 0 129.052-1.422 221.867-125.156 9.444-12.572 6.884-30.407-5.689-39.822-5.12-3.84-11.093-5.689-17.038-5.689z" />
<glyph unicode="&#xe924;" d="M512 305.778c-47.132 0-85.333-50.916-85.333-113.778h170.667c0 62.862-38.201 113.778-85.333 113.778z" />
<glyph unicode="&#xe925;" d="M412.444 547.556c0-54.983-31.838-99.556-71.111-99.556s-71.111 44.573-71.111 99.556c0 54.983 31.838 99.556 71.111 99.556s71.111-44.573 71.111-99.556z" />
<glyph unicode="&#xe926;" d="M753.778 547.556c0-54.983-31.838-99.556-71.111-99.556s-71.111 44.573-71.111 99.556c0 54.983 31.838 99.556 71.111 99.556s71.111-44.573 71.111-99.556z" />
<glyph unicode="&#xe927;" d="M1024 448c0-282.77-229.23-512-512-512s-512 229.23-512 512c0 282.77 229.23 512 512 512s512-229.23 512-512z" />
<glyph unicode="&#xe928;" d="M299.093 288.114c1.28-5.092 33.223-124.558 212.907-124.558 179.712 0 211.627 119.467 212.907 124.558 1.564 6.172-1.223 12.572-6.741 15.758-5.547 3.157-12.487 2.219-17.067-2.19-0.54-0.54-55.58-52.793-189.099-52.793s-188.587 52.252-189.099 52.764c-2.731 2.702-6.372 4.124-10.012 4.124-2.389 0-4.807-0.597-6.997-1.82-5.575-3.186-8.363-9.643-6.798-15.844z" />
<glyph unicode="&#xe929;" d="M412.444 576c0-54.983-31.838-99.556-71.111-99.556s-71.111 44.573-71.111 99.556c0 54.983 31.838 99.556 71.111 99.556s71.111-44.573 71.111-99.556z" />
<glyph unicode="&#xe92a;" d="M753.778 576c0-54.983-31.838-99.556-71.111-99.556s-71.111 44.573-71.111 99.556c0 54.983 31.838 99.556 71.111 99.556s71.111-44.573 71.111-99.556z" />
<glyph unicode="&#xe92b;" glyph-name="2764" d="M1020.729 623.417c0 155.022-125.668 280.69-280.661 280.69-94.094 0-177.124-46.45-228.068-117.447-50.944 70.997-133.973 117.447-228.039 117.447-155.022 0-280.69-125.639-280.69-280.69 0-21.959 2.788-43.236 7.566-63.744 38.969-242.148 308.196-497.607 501.163-567.751 192.939 70.144 462.194 325.604 501.106 567.723 4.836 20.508 7.623 41.785 7.623 63.772z" />
<glyph unicode="&#xe92c;" d="M513.794 704.055c17.64 0 31.942-14.302 31.942-31.942v-383.309c0-17.64-14.302-31.942-31.942-31.942s-31.942 14.302-31.942 31.942v383.309c0 17.64 14.302 31.942 31.942 31.942z" />
<glyph unicode="&#xe92d;" d="M481.851 192.976h63.885v-63.885h-63.885z" />
<glyph unicode="&#x1f642;" glyph-name="smile" d="M511.672 960c282.051 0 511.672-229.622 511.672-511.672s-229.622-511.672-511.672-511.672c-282.051 0-511.672 229.622-511.672 511.672s229.622 511.672 511.672 511.672zM511.672 926.413c-131.809 0-251.372-53.576-337.92-140.165-86.589-86.548-140.165-206.111-140.165-337.92s53.576-251.372 140.165-337.92c86.548-86.589 206.111-140.165 337.92-140.165s251.372 53.576 337.92 140.165c86.589 86.548 140.165 206.111 140.165 337.92s-53.576 251.372-140.165 337.92c-86.508 86.589-206.111 140.165-337.92 140.165zM737.28 386.56v-24.371c0-99.123-101.458-180.429-225.28-180.429-120.545 0-219.955 77.046-225.075 172.646l-0.205 7.782v24.371h450.56zM694.886 345.6h-365.814l0.573-3.4c12.575-63.406 83.804-115.876 173.056-119.316l9.298-0.164c93.594 0 169.329 53.862 182.354 119.48l0.532 3.4zM696.32 591.36c22.692 0 40.96-18.268 40.96-40.96s-18.268-40.96-40.96-40.96-40.96 18.268-40.96 40.96 18.268 40.96 40.96 40.96zM327.68 591.36c22.692 0 40.96-18.268 40.96-40.96s-18.268-40.96-40.96-40.96-40.96 18.268-40.96 40.96 18.268 40.96 40.96 40.96z" />
</font>
</defs>
</svg>
